<svg xmlns="http://www.w3.org/2000/svg" id="root" viewBox="0 0 32 32" fill="none">
    <path fill-rule="evenodd" clip-rule="evenodd" d="M14.9834 12.3105L16.7613 8.82863C17.3141 7.74629 18.9159 7.718 19.5096 8.78054L26.3146 20.9609C26.907 22.0211 25.9982 23.2781 24.7526 23.1217L19.7261 22.4906L14.9834 12.3105Z" fill="#fff"></path>
    <path fill-rule="evenodd" clip-rule="evenodd" d="M9.01562 16.0017L10.3952 11.1908C10.747 9.96466 12.5442 9.91254 12.9729 11.1161L16.8325 21.9541C17.1934 22.9677 16.1819 23.9368 15.1222 23.5928L11.6837 22.4762L9.01562 16.0017Z" fill="#fff"></path>
    <path d="M6.15443 14.7353L5.51161 20.0685C5.44558 20.6161 5.66392 21.1599 6.09618 21.5244L7.6891 22.8676C8.23453 23.3276 9.08169 22.8793 8.96451 22.1927L7.6871 14.7009C7.54235 13.8526 6.25738 13.8815 6.15443 14.7353V14.7353Z" fill="#fff"></path>
</svg>
